<svg xmlns="http://www.w3.org/2000/svg" viewBox="0 0 192 192" width="192" height="192">
  <!-- Solid background extending to all edges -->
  <rect width="192" height="192" fill="#2563eb" />
  
  <!-- Artwork constrained within the inner 60% safe zone (center 115px) -->
  <g transform="translate(19, 19) scale(0.8)">
    <path d="M125,120 C90,120 65,95 65,60 C65,50 68,40 73,32 C50,40 35,62 35,88 C35,121 62,148 95,148 C115,148 132,138 142,122 C137,121 131,120 125,120 Z" fill="#fef08a" />
    <polygon points="120,45 123,52 131,53 125,58 127,66 120,62 113,66 115,58 109,53 117,52" fill="#ffffff" />
    <polygon points="145,75 147,80 152,81 148,84 149,89 145,86 141,89 142,84 138,81 143,80" fill="#ffffff" opacity="0.8" />
  </g>
</svg>
